<svg width="30" height="30" viewBox="0 0 30 30" fill="none" xmlns="http://www.w3.org/2000/svg">
<path d="M15 5C20.5228 5 25 9.47715 25 15C25 20.1474 21.1105 24.384 16.1104 24.9365V18.333H18.333L19.4443 15H16.1104V13.7227C16.1104 13.3643 16.2365 13.0353 16.4463 12.7773C16.7212 12.439 17.1405 12.2229 17.6104 12.2227H19.4443V9.44434H16.1104C14.2699 9.44475 12.7776 10.9368 12.7773 12.7773V15H10.5557V18.333H12.7773V24.749C8.32459 23.7381 5 19.7587 5 15C5 9.47715 9.47715 5 15 5Z" fill="#0032A0"/>
</svg>
