<svg width="40" height="40" viewBox="0 0 40 40" fill="none" xmlns="http://www.w3.org/2000/svg">
<g clip-path="url(#clip0_757_82)">
<path d="M21.9241 24.0925C24.8101 24.8872 26.8945 27.5097 26.8945 30.6091C26.8945 34.3442 23.8481 37.3641 20.0802 37.3641C16.3122 37.3641 13.2658 34.3442 13.2658 30.6091C13.2658 27.5892 15.27 24.9667 18.0759 24.0925" stroke="#0032A0" stroke-width="1.5" stroke-linecap="round"/>
<path d="M17.9958 24.0926V18.4502H21.9241V24.0926" stroke="#0032A0" stroke-width="1.5" stroke-linecap="round"/>
<path d="M22.1646 18.4503H17.8354C17.3544 18.4503 16.8734 18.0529 16.8734 17.4966C16.8734 17.0198 17.2743 16.543 17.8354 16.543H22.1646C22.6456 16.543 23.1266 16.9403 23.1266 17.4966C23.1266 18.0529 22.7257 18.4503 22.1646 18.4503Z" stroke="#0032A0" stroke-width="1.5" stroke-linecap="round"/>
<path d="M13.9072 33.6291V37.2847H2.44304V24.49L13.9072 19.0066V27.5894" stroke="#0032A0" stroke-width="1.5" stroke-linecap="round"/>
<path d="M14.5485 18.6887L2.12237 24.7284C1.88186 24.8079 1.64136 24.649 1.64136 24.4106V22.6622C1.64136 22.5033 1.72153 22.4238 1.80169 22.3443L14.2279 16.3046C14.4684 16.2251 14.7089 16.3841 14.7089 16.6225V18.2914C14.7089 18.5298 14.7089 18.6092 14.5485 18.6887Z" stroke="#0032A0" stroke-width="1.5" stroke-linecap="round"/>
<path d="M26.173 33.6291V37.2847H37.557V24.49L26.173 19.0066V27.5894" stroke="#0032A0" stroke-width="1.5" stroke-linecap="round"/>
<path d="M25.4515 18.6887L37.8776 24.7284C38.1181 24.8079 38.3586 24.649 38.3586 24.4106V22.6622C38.3586 22.5033 38.2785 22.4238 38.1983 22.3443L25.7722 16.3046C25.5316 16.2251 25.2911 16.3841 25.2911 16.6225V18.2914C25.2911 18.5298 25.3713 18.6092 25.4515 18.6887Z" stroke="#0032A0" stroke-width="1.5" stroke-linecap="round"/>
<path d="M26.173 35.7749H24.4895" stroke="#0032A0" stroke-width="1.5" stroke-linecap="round"/>
<path d="M29.5401 7.24512H31.5443V19.1656" stroke="#0032A0" stroke-width="1.5" stroke-linecap="round"/>
<path d="M8.4557 19.1656V7.24512H26.7342" stroke="#0032A0" stroke-width="1.5" stroke-linecap="round"/>
<path d="M15.5907 35.7749H13.9072" stroke="#0032A0" stroke-width="1.5" stroke-linecap="round"/>
<path d="M23.6878 14.0794C22.8861 14.0794 22.1646 13.4437 22.1646 12.5695C22.1646 11.6953 22.8059 11.0596 23.6878 11.0596C24.5696 11.0596 25.211 11.6953 25.211 12.5695C25.211 13.4437 24.5696 14.0794 23.6878 14.0794ZM23.6878 12.3311C23.5274 12.3311 23.3671 12.49 23.3671 12.649C23.3671 12.8079 23.5274 12.9669 23.6878 12.9669C23.8481 12.9669 24.0084 12.8079 24.0084 12.649C24.0084 12.49 23.8481 12.3311 23.6878 12.3311Z" fill="#0032A0"/>
<path d="M28.1772 9.62903C27.0549 9.62903 26.0928 8.67539 26.0928 7.56281C26.0928 6.45022 27.0549 5.49658 28.1772 5.49658C29.2996 5.49658 30.2616 6.45022 30.2616 7.56281C30.2616 8.67539 29.2996 9.62903 28.1772 9.62903ZM28.1772 6.76811C27.6962 6.76811 27.2954 7.16546 27.2954 7.64228C27.2954 8.1191 27.6962 8.51645 28.1772 8.51645C28.6582 8.51645 29.0591 8.1191 29.0591 7.64228C29.0591 7.16546 28.5781 6.76811 28.1772 6.76811Z" fill="#0032A0"/>
<path d="M23.6878 5.25828C22.8059 5.25828 22.0042 4.54305 22.0042 3.5894C22.0042 2.63576 22.8059 2 23.6878 2C24.5696 2 25.3713 2.71523 25.3713 3.66887C25.3713 4.62252 24.6498 5.25828 23.6878 5.25828ZM23.6878 3.19205C23.4473 3.19205 23.2068 3.43046 23.2068 3.66887C23.2068 3.90728 23.4473 4.1457 23.6878 4.1457C23.9283 4.1457 24.1688 3.90728 24.1688 3.66887C24.1688 3.43046 23.9283 3.19205 23.6878 3.19205Z" fill="#0032A0"/>
<path d="M6.29115 22.9802V37.2849" stroke="#0032A0" stroke-width="1.5" stroke-linecap="round"/>
<path d="M10.0591 21.3113V37.2848" stroke="#0032A0" stroke-width="1.5" stroke-linecap="round"/>
<path d="M33.4684 22.9802V37.2849" stroke="#0032A0" stroke-width="1.5" stroke-linecap="round"/>
<path d="M29.6203 21.3113V37.2848" stroke="#0032A0" stroke-width="1.5" stroke-linecap="round"/>
</g>
<defs>
<clipPath id="clip0_757_82">
<rect width="38" height="36" fill="white" transform="translate(1 2)"/>
</clipPath>
</defs>
</svg>
