<svg width="40" height="40" viewBox="0 0 40 40" fill="none" xmlns="http://www.w3.org/2000/svg">
<g clip-path="url(#clip0_757_61)">
<path d="M19.5001 20.1585C23.0332 20.1585 25.8973 17.3739 25.8973 13.9389C25.8973 10.5039 23.0332 7.71924 19.5001 7.71924C15.967 7.71924 13.1028 10.5039 13.1028 13.9389C13.1028 17.3739 15.967 20.1585 19.5001 20.1585Z" stroke="#0032A0" stroke-width="1.5" stroke-linecap="round"/>
<path d="M28.4407 34.4756V32.1526" stroke="#0032A0" stroke-width="1.5" stroke-linecap="round"/>
<path d="M26.2055 25.5582C24.587 23.7598 22.1976 22.5608 19.5 22.5608C14.5672 22.5608 10.6364 26.4574 10.6364 31.1784V34.4755" stroke="#0032A0" stroke-width="1.5" stroke-linecap="round"/>
<path d="M38.3834 32.1526V29.6798C38.3834 26.0079 35.3004 23.0854 31.6008 23.0854C29.4427 23.0854 27.5158 24.0596 26.2055 25.6333C27.5929 27.132 28.3636 29.1552 28.3636 31.2534V32.1526" stroke="#0032A0" stroke-width="1.5" stroke-linecap="round"/>
<path d="M28.6719 19.484C29.3656 20.0085 30.1364 20.3083 31.0613 20.4581C33.6047 20.7579 35.917 18.9594 36.2253 16.4865C36.5336 14.0137 34.6838 11.7656 32.1403 11.4659C31.2925 11.3909 30.4447 11.5408 29.751 11.8406" stroke="#0032A0" stroke-width="1.5" stroke-linecap="round"/>
<path d="M10.4822 19.3342C9.86558 19.8588 9.01776 20.2334 8.16993 20.3833C5.62645 20.758 3.23712 19.0345 2.85175 16.5616C2.46637 14.0887 4.2391 11.7657 6.78258 11.3911C7.6304 11.2412 8.47823 11.3911 9.17191 11.6908" stroke="#0032A0" stroke-width="1.5" stroke-linecap="round"/>
<path d="M0.616608 32.1524V29.6795C0.616608 26.0077 3.69961 23.0852 7.39922 23.0852C9.55732 23.0852 11.4842 24.0594 12.7945 25.633C11.4071 27.1317 10.6364 29.155 10.6364 31.2532V32.1524" stroke="#0032A0" stroke-width="1.5" stroke-linecap="round"/>
</g>
<defs>
<clipPath id="clip0_757_61">
<rect width="39" height="29" fill="white" transform="translate(0 6)"/>
</clipPath>
</defs>
</svg>
