<svg width="40" height="40" viewBox="0 0 40 40" fill="none" xmlns="http://www.w3.org/2000/svg">
<g clip-path="url(#clip0_757_62)">
<path d="M32.5833 33.4166C36.1667 30.0833 38.4167 25.3333 38.4167 19.9999C38.4167 9.83325 30.1667 1.58325 20 1.58325C9.83333 1.58325 1.58333 9.83325 1.58333 19.9999C1.58333 25.2499 3.83333 30.0833 7.41666 33.4166C10.6667 30.3333 15.0833 28.4166 20 28.4166C24.9167 28.4166 29.25 30.3333 32.5833 33.4166Z" stroke="#0032A0" stroke-width="1.5"/>
<path d="M32.5833 33.4165C29.3333 30.3332 24.9167 28.4165 20 28.4165C15.0833 28.4165 10.75 30.3332 7.41666 33.4165C10.6667 36.4998 15.0833 38.4165 20 38.4165C24.9167 38.4165 29.25 36.4998 32.5833 33.4165Z" stroke="#0032A0" stroke-width="1.5"/>
<path d="M20 38.4166C25.4308 38.4166 29.8333 30.1712 29.8333 19.9999C29.8333 9.82867 25.4308 1.58325 20 1.58325C14.5692 1.58325 10.1667 9.82867 10.1667 19.9999C10.1667 30.1712 14.5692 38.4166 20 38.4166Z" stroke="#0032A0" stroke-width="1.5"/>
<path d="M32.5833 6.58325C29.3333 9.66659 24.9167 11.5833 20 11.5833C15.0833 11.5833 10.75 9.66659 7.41666 6.58325C10.6667 3.49992 15.0833 1.58325 20 1.58325C24.9167 1.58325 29.25 3.49992 32.5833 6.58325Z" stroke="#0032A0" stroke-width="1.5"/>
<path d="M1.66666 20H38.4167" stroke="#0032A0" stroke-width="1.5"/>
<path d="M20 38.4165V1.6665" stroke="#0032A0" stroke-width="1.5"/>
</g>
<defs>
<clipPath id="clip0_757_62">
<rect width="38" height="38" fill="white" transform="translate(1 1)"/>
</clipPath>
</defs>
</svg>
