<svg width="40" height="40" viewBox="0 0 40 40" fill="none" xmlns="http://www.w3.org/2000/svg">
<g clip-path="url(#clip0_757_72)">
<path d="M16.8649 20.3752L13.4595 18.13C12.6487 17.6311 12.4054 16.55 12.8919 15.7185L19.4595 4.99141C19.946 4.15985 21 3.91038 21.8108 4.40932L25.2162 6.65452C26.027 7.15345 26.2703 8.23448 25.7838 9.06603L22.6216 12.1428C21.0811 13.6396 20.027 15.5522 19.6216 17.7142L19.2162 19.8763C18.7297 20.6247 17.6757 20.8741 16.8649 20.3752Z" stroke="#0032A0" stroke-width="1.5"/>
<path d="M24.4865 10.3965L26.6757 12.7248C26.9189 12.9743 26.9189 13.3901 26.6757 13.6396C24.3243 15.8016 25.1351 17.5479 24.6487 17.7142C24.2433 17.8805 21.7297 16.8826 20.6757 16.7995L19.7027 16.6332" stroke="#0032A0" stroke-width="1.5"/>
<path d="M24.8108 6.40507L22.5405 4.90826C21.973 4.57564 21.6487 4.15986 21.7297 3.99355L23.1081 1.74835C23.1892 1.58204 23.7568 1.74835 24.2433 2.08097L26.5135 3.49462C27.0811 3.82724 27.4054 4.24302 27.3243 4.40933L25.946 6.65453C25.8649 6.82085 25.2973 6.73769 24.8108 6.40507Z" stroke="#0032A0" stroke-width="1.5"/>
<path d="M14.4324 22.2047L12.8919 21.2068C12.5676 20.9574 12.3243 20.7079 12.4054 20.5416L13.5405 18.629C13.6216 18.4627 13.9459 18.5458 14.3514 18.7953L15.8919 19.7932C16.2162 20.0427 16.4595 20.2921 16.3784 20.4584L15.2432 22.371C15.1622 22.4542 14.7568 22.371 14.4324 22.2047Z" stroke="#0032A0" stroke-width="1.5"/>
<path d="M15.3243 28.6076H7.70271C7.13514 28.6076 6.64865 28.1087 6.64865 27.5266C6.64865 26.9445 7.13514 26.4456 7.70271 26.4456H15.4054C15.973 26.4456 16.4595 26.9445 16.4595 27.5266C16.3784 28.1087 15.973 28.6076 15.3243 28.6076Z" stroke="#0032A0" stroke-width="1.5"/>
<path d="M25.0541 32.8486V36.5075H15.2432V32.8486" stroke="#0032A0" stroke-width="1.5"/>
<path d="M27.4054 36.5073H10.4595C8.83784 36.5073 7.62162 37.7547 7.54054 39.4178H30.3243C30.3243 37.7547 29.027 36.5073 27.4054 36.5073Z" stroke="#0032A0" stroke-width="1.5"/>
<path d="M24.8108 17.2985C27.3243 19.4606 28.7027 22.2878 28.1351 25.1151C27.1622 29.855 21.1622 32.5991 14.5946 31.1855C13.2162 30.936 10.5405 29.3561 9.40541 28.774C11.6757 31.1023 16.3784 33.6802 20.027 33.6802C26.8378 33.6802 32.2703 28.6908 32.2703 22.5373C32.2703 18.629 30.0811 15.2196 26.7568 13.2239" stroke="#0032A0" stroke-width="1.5"/>
</g>
<defs>
<clipPath id="clip0_757_72">
<rect width="27" height="39" fill="white" transform="translate(6 1)"/>
</clipPath>
</defs>
</svg>
