<svg width="30" height="30" viewBox="0 0 30 30" fill="none" xmlns="http://www.w3.org/2000/svg">
<path d="M20.2568 5.00684C22.8989 5.14053 25 7.32472 25 10V20L24.9932 20.2568C24.8595 22.8989 22.6753 25 20 25H10C7.23858 25 5 22.7614 5 20V10C5 7.32472 7.10111 5.14053 9.74316 5.00684L10 5H20L20.2568 5.00684ZM10 6.5C8.067 6.5 6.5 8.067 6.5 10V20C6.5 21.933 8.067 23.5 10 23.5H20C21.933 23.5 23.5 21.933 23.5 20V10C23.5 8.067 21.933 6.5 20 6.5H10ZM15 10C17.7614 10 20 12.2386 20 15C20 17.7614 17.7614 20 15 20C12.2386 20 10 17.7614 10 15C10 12.2386 12.2386 10 15 10ZM15 11.5C13.067 11.5 11.5 13.067 11.5 15C11.5 16.933 13.067 18.5 15 18.5C16.933 18.5 18.5 16.933 18.5 15C18.5 13.067 16.933 11.5 15 11.5ZM9.5 8C10.3284 8 11 8.67157 11 9.5C11 10.3284 10.3284 11 9.5 11C8.67157 11 8 10.3284 8 9.5C8 8.67157 8.67157 8 9.5 8Z" fill="#0032A0"/>
</svg>
