<svg width="30" height="30" viewBox="0 0 30 30" fill="none" xmlns="http://www.w3.org/2000/svg">
<path d="M16 5C21.5037 5 24.9042 5.21073 26.9727 5.43848C28.8548 5.6459 29.9999 7.19626 30 9.08984V20.9102C29.9999 22.8037 28.8486 24.3443 26.9658 24.5459C24.7801 24.7797 21.1014 25 15 25C8.35143 25 4.84163 24.738 2.99902 24.4824C1.68552 24.3002 1 23.2548 1 21.9287V9.60352C1.00012 7.45157 2.41146 5.65538 4.55273 5.44141C6.84713 5.21226 10.467 5 16 5ZM13 18.4639L19 15L13 11.5361V18.4639Z" fill="#0032A0"/>
</svg>
